<svg xmlns="http://www.w3.org/2000/svg" viewBox="0 0 256 256">
  <defs>
    <linearGradient id="doc" x1="0%" y1="0%" x2="100%" y2="100%">
      <stop offset="0%" stop-color="#fefce8"/>
      <stop offset="100%" stop-color="#fef3c7"/>
    </linearGradient>
  </defs>
  <!-- File shape with folded corner -->
  <path d="M48,16 L168,16 L208,56 L208,224 C208,232.8 200.8,240 192,240 L64,240 C55.2,240 48,232.8 48,224 Z" fill="url(#doc)" stroke="#d97706" stroke-width="4"/>
  <!-- Fold -->
  <path d="M168,16 L168,56 L208,56" fill="#fde68a" stroke="#d97706" stroke-width="4" stroke-linejoin="round"/>
  <!-- FillBuddy badge at top -->
  <rect x="68" y="72" width="120" height="28" rx="14" fill="#d97706"/>
  <text x="128" y="91" text-anchor="middle" font-family="system-ui, sans-serif" font-weight="800" font-size="14" fill="white" letter-spacing="0.5">.fillbuddy</text>
  <!-- Annotation icons -->
  <!-- Text line -->
  <rect x="78" y="120" width="100" height="6" rx="3" fill="#92400e" opacity="0.3"/>
  <rect x="78" y="134" width="80" height="6" rx="3" fill="#92400e" opacity="0.3"/>
  <!-- Check mark -->
  <circle cx="88" cy="166" r="12" fill="#16a34a" opacity="0.85"/>
  <polyline points="81,166 86,171 95,161" fill="none" stroke="white" stroke-width="2.5" stroke-linecap="round" stroke-linejoin="round"/>
  <rect x="108" y="161" width="60" height="6" rx="3" fill="#92400e" opacity="0.3"/>
  <!-- Signature squiggle -->
  <path d="M78,200 Q90,185 102,200 Q114,215 126,200 Q138,185 150,200" fill="none" stroke="#d97706" stroke-width="3" stroke-linecap="round"/>
</svg>
